<?xml version="1.0" encoding="UTF-8"?>
<svg id="Layer_1" data-name="Layer 1" xmlns="http://www.w3.org/2000/svg" viewBox="0 0 101.65 104.19">
  <defs>
    <style>
      .cls-1 {
        fill: #444445;
        stroke-width: 0px;
      }
    </style>
  </defs>
  <path class="cls-1" d="M74.02,16.33c-6.65-2.1-13.76-.61-19,3.96-.65.57-1.13,1.11-1.46,1.65-.68,1.11-.5,2.29.49,3.22.99.93,2.2,1.02,3.39.25.35-.23.66-.51.96-.79.12-.11.24-.21.35-.32,4.91-4.27,12.35-4.6,17.68-.79,5.47,3.92,7.6,11.17,5.07,17.23-1.94,4.63-5.78,7.84-10.55,8.8-4.77.97-9.55-.5-13.12-4.01-2.33-2.29-4.69-4.65-6.96-6.93-1.74-1.75-3.49-3.49-5.24-5.23-.82-.82-1.7-1.25-2.53-1.25h-.02c-.67,0-1.3.29-1.82.83-1.14,1.17-.95,2.79.5,4.24l2.6,2.61c2.86,2.88,5.82,5.84,8.78,8.74v38.73c0,2.98,2.42,5.41,5.41,5.41h19.43c2.98,0,5.41-2.42,5.41-5.41v-39.39c.15-.18.33-.35.48-.54,3.72-4.75,4.99-10.91,3.49-16.91-1.68-6.74-6.67-12.02-13.33-14.11ZM78.44,87.28c0,.25-.21.46-.46.46h-19.43c-.25,0-.46-.21-.46-.46v-34.73c2.76,1.66,5.77,2.63,8.82,2.67h.05c4.21,0,8.15-1.09,11.48-3.09v35.16Z"/>
  <path class="cls-1" d="M46.24,45.7c-.81-.9-2.2-1.61-4.24.16-.11.09-.21.19-.32.28-.16.14-.32.29-.48.42-5.12,4.18-12.19,4.4-17.58.56-5.31-3.78-7.42-10.7-5.13-16.83,1.75-4.68,5.49-7.97,10.26-9.04,4.88-1.08,10.01.43,13.73,4.07,2.5,2.45,5.01,4.97,7.43,7.41,1.58,1.59,3.16,3.18,4.75,4.76,1.38,1.36,2.92,1.48,4.13.31.54-.52.83-1.14.83-1.81,0-.79-.37-1.59-1.1-2.32-1.15-1.15-2.29-2.31-3.43-3.47-3.05-3.1-6.21-6.31-9.44-9.34-5.69-5.34-12.64-6.83-20.09-4.32-10.32,3.48-14.47,13.37-13.24,21.34.61,3.93,2.13,7.36,4.32,10.12v39.26c0,2.98,2.43,5.41,5.41,5.41h19.43c2.98,0,5.41-2.42,5.41-5.41v-39.42h-.05c.14-.77-.04-1.52-.61-2.15ZM41.96,87.28c0,.25-.21.46-.46.46h-19.43c-.25,0-.46-.21-.46-.46v-34.9c3,1.83,6.56,2.87,10.45,2.87h.02c3.55,0,6.96-.97,9.89-2.63v34.67Z"/>
</svg>