<?xml version="1.0" encoding="UTF-8"?>
<svg id="Layer_1" data-name="Layer 1" xmlns="http://www.w3.org/2000/svg" viewBox="0 0 595.28 166.87">
  <defs>
    <style>
      .cls-1 {
        fill: #ff7daa;
        stroke-width: 0px;
      }
    </style>
  </defs>
  <path class="cls-1" d="M100.21,27.54H29.68c-1.97,0-3.78.65-5.53,2.16-1.28,1.37-1.96,3.01-1.96,4.76v21.17c0,1.15.25,2.23.73,3.2.72,1.46,2.06,2.64,3.69,3.22.95.33,1.98.5,3.06.5l8.19-.28v73.27c0,1.14.24,2.21.73,3.22.73,1.46,2.07,2.63,3.67,3.19.95.34,1.99.51,3.08.51h39.18c1.69,0,3.27-.49,4.99-1.67,1.63-1.38,2.5-3.2,2.5-5.25l.35-72.99h7.84c1.7,0,3.28-.49,4.99-1.67,1.63-1.38,2.5-3.2,2.5-5.25v-21.17c0-1.32-.43-3.27-2.51-5.05-1.46-1.23-3.18-1.87-4.98-1.87ZM100.21,55.37h-7.84c-1.98,0-3.79.65-5.52,2.15-1.29,1.36-1.97,3.01-1.97,4.77l.35,72.77c-.23.16-.44.22-.71.22h-39.18c-.15,0-.28,0-.35.03V62.28c0-1.33-.43-3.28-2.5-5.04-1.45-1.23-3.18-1.88-4.99-1.88h-7.99c-.08,0-.15,0-.2.02l.35-20.65,70.88-.27.35,20.69c-.23.15-.43.22-.7.22Z"/>
  <path class="cls-1" d="M241.03,27.54h-23.51c-1.97,0-3.77.65-5.53,2.16-1.28,1.37-1.96,3.01-1.96,4.76l.11,35.37c-1.87,3.16-7.01,2.73-8.65.43v-35.8c0-1.32-.43-3.27-2.51-5.05-1.46-1.23-3.18-1.87-4.98-1.87h-23.51c-1.97,0-3.77.65-5.52,2.16-1.29,1.36-1.96,3.01-1.96,4.76l.11,35.37c-1.87,3.15-7,2.73-8.65.43v-35.8c0-1.33-.43-3.28-2.5-5.05-1.46-1.23-3.18-1.87-4.98-1.87h-23.51c-1.96,0-3.77.65-5.53,2.16-1.28,1.37-1.96,3.01-1.96,4.76v63.79c0,1.12.31,2.24.9,3.25l22.09,37.46h0c1.28,2.17,3.73,3.51,6.4,3.51h26.74c2.67,0,5.12-1.34,6.4-3.51l4.01-5.89,3.48,5.9c1.28,2.16,3.73,3.5,6.4,3.5h26.74c2.67,0,5.12-1.34,6.4-3.51l22.08-37.45c.59-.99.9-2.12.9-3.26v-63.79c0-1.32-.43-3.27-2.51-5.05-1.46-1.23-3.18-1.87-4.98-1.87ZM219.13,135.28h-27.01s-3.47-5.88-3.47-5.88c-1.29-2.2-3.69-3.51-6.4-3.51s-5.1,1.31-6.4,3.51l-3.74,5.88-27.06-.08-21.93-36.94.35-63.52,23.86-.27v35.8c0,1.14.31,2.27.9,3.25,2.09,3.54,6.02,5.65,10.51,5.65s8.42-2.11,10.51-5.65c.59-.99.9-2.12.9-3.26l.35-35.53,23.87-.27v35.8c0,1.13.31,2.25.89,3.25,2.09,3.54,6.02,5.65,10.51,5.65s8.42-2.11,10.5-5.65c.59-.99.9-2.12.9-3.26l.35-35.53,23.87-.27.11,63.37-22.36,37.45Z"/>
  <path class="cls-1" d="M455.53,27.39h-23.51c-1.97,0-3.78.65-5.52,2.14-1.29,1.35-1.97,2.99-1.97,4.72l.23,9.25c-.15.11-.57.13-.66.11l-7.58-12.75c-1.28-2.15-3.73-3.48-6.4-3.48h-25.12c-1.97,0-3.78.64-5.53,2.15-1.28,1.35-1.96,2.98-1.96,4.72v101.35c0,1.13.24,2.2.73,3.19.73,1.45,2.07,2.61,3.67,3.17.95.34,1.99.51,3.08.51h23.51c1.69,0,3.27-.48,4.99-1.66,1.63-1.37,2.5-3.17,2.5-5.2l-.23-9.25c.16-.11.56-.13.66-.11l7.58,12.75c1.28,2.14,3.73,3.47,6.4,3.47h25.12c1.69,0,3.27-.48,4.99-1.66,1.63-1.37,2.5-3.17,2.5-5.2V34.26c0-1.31-.43-3.25-2.51-5-1.46-1.22-3.18-1.86-4.98-1.86ZM455.53,135.34h-25.4s-7.58-12.74-7.58-12.74c-1.67-2.81-5.18-4.1-8.52-3.19-3.14.87-5.18,3.38-5.18,6.42l.36,9.29c-.23.16-.44.22-.71.22h-23.51c-.16,0-.29,0-.35.02l.35-100.84h25.39s7.58,12.74,7.58,12.74c1.67,2.8,5.18,4.1,8.52,3.19,3.14-.87,5.17-3.38,5.17-6.42l.35-9.51,23.87-.27.35,100.86c-.23.16-.44.22-.71.22Z"/>
  <path class="cls-1" d="M564.8,27.39h-86.21c-1.97,0-3.78.64-5.53,2.15-1.28,1.35-1.96,2.98-1.96,4.72v19.77c0,1.13.25,2.2.73,3.18.72,1.45,2.06,2.61,3.68,3.18.95.33,1.98.5,3.07.5l21.14.07-27.73,49.11c-.58.99-.89,2.1-.89,3.22v22.32c0,1.14.25,2.21.73,3.18.72,1.46,2.07,2.62,3.67,3.18.95.34,1.99.51,3.09.51h86.21c1.69,0,3.27-.48,4.99-1.66,1.63-1.37,2.5-3.17,2.5-5.2v-19.77c0-1.32-.43-3.25-2.5-4.99-1.45-1.22-3.18-1.87-4.99-1.87l-21.14-.07,27.73-49.11c.58-.99.89-2.1.89-3.22v-22.32c0-1.31-.43-3.25-2.51-5-1.46-1.22-3.18-1.86-4.98-1.86ZM537,106.19c-1.18,1.97-1.2,4.34-.07,6.33,1.26,2.21,3.74,3.59,6.47,3.59l21.75-.27.35,19.28c-.23.16-.44.22-.71.22h-86.21c-.16,0-.29,0-.35.03l-.07-21.73,28.22-49.96c1.18-1.97,1.2-4.34.07-6.33-1.26-2.22-3.74-3.59-6.47-3.59h-21.55c-.08,0-.15,0-.2.02l.35-19.25,86.56-.27.07,21.97-28.22,49.96Z"/>
  <path class="cls-1" d="M348.46,28.76c-9.91-3.12-20.49-.91-28.29,5.9-.97.84-1.68,1.65-2.17,2.46-1.01,1.66-.75,3.4.72,4.79,1.48,1.38,3.28,1.51,5.04.37.52-.34.99-.76,1.43-1.18.18-.16.35-.32.53-.47,7.32-6.35,18.39-6.85,26.32-1.17,8.15,5.84,11.33,16.63,7.55,25.67-2.88,6.89-8.61,11.67-15.71,13.1-7.1,1.44-14.22-.75-19.54-5.98-3.48-3.41-6.98-6.92-10.36-10.32-2.6-2.6-5.2-5.2-7.81-7.79-1.23-1.22-2.53-1.86-3.76-1.86h-.03c-.99,0-1.93.44-2.71,1.24-1.69,1.74-1.41,4.16.74,6.32l3.87,3.89c4.26,4.29,8.67,8.69,13.08,13.01v57.68c0,4.44,3.61,8.05,8.05,8.05h28.94c4.44,0,8.06-3.61,8.06-8.05v-58.66c.23-.27.49-.52.71-.8,5.53-7.07,7.43-16.25,5.2-25.18-2.51-10.05-9.93-17.91-19.86-21.02ZM355.05,134.42c0,.38-.31.68-.69.68h-28.94c-.38,0-.68-.31-.68-.68v-51.72c4.11,2.48,8.59,3.92,13.14,3.97h.07c6.26,0,12.14-1.63,17.1-4.61v52.36Z"/>
  <path class="cls-1" d="M307.93,72.51c-1.21-1.34-3.28-2.39-6.31.25-.16.14-.32.28-.47.42-.24.22-.47.43-.72.63-7.63,6.22-18.15,6.56-26.18.83-7.9-5.63-11.05-15.94-7.64-25.06,2.6-6.96,8.17-11.87,15.28-13.46,7.26-1.61,14.9.64,20.44,6.05,3.73,3.64,7.46,7.4,11.07,11.04,2.35,2.37,4.7,4.73,7.07,7.09,2.05,2.03,4.35,2.2,6.16.47.8-.77,1.23-1.7,1.24-2.7,0-1.17-.56-2.37-1.64-3.46-1.71-1.71-3.4-3.44-5.1-5.16-4.55-4.62-9.25-9.4-14.07-13.91-8.48-7.95-18.82-10.17-29.91-6.43-15.37,5.18-21.55,19.91-19.72,31.78.91,5.85,3.17,10.96,6.44,15.07v58.48c0,4.44,3.61,8.05,8.06,8.05h28.94c4.44,0,8.06-3.61,8.06-8.05v-58.71h-.08c.21-1.15-.07-2.27-.91-3.21ZM301.56,134.42c0,.38-.31.68-.69.68h-28.94c-.38,0-.69-.31-.69-.68v-51.98c4.48,2.73,9.76,4.27,15.56,4.27h.02c5.29,0,10.36-1.44,14.73-3.92v51.63Z"/>
</svg>